<svg xmlns="http://www.w3.org/2000/svg" x="0px" y="0px"
width="64" height="64"
viewBox="0 0 172 172"
style=" fill:#000000;"><g fill="none" fill-rule="nonzero" stroke="none" stroke-width="1" stroke-linecap="butt" stroke-linejoin="miter" stroke-miterlimit="10" stroke-dasharray="" stroke-dashoffset="0" font-family="none" font-weight="none" font-size="none" text-anchor="none" style="mix-blend-mode: normal"><path d="M0,172v-172h172v172z" fill="none"></path><g fill="#ffffff"><path d="M86.13385,1.34375c-9.675,0 -17.6026,7.79375 -17.6026,17.46875v10.75c0,2.28438 1.74688,4.03125 4.03125,4.03125c2.28437,0 4.03125,-1.74687 4.03125,-4.03125v-10.75c0,-5.24062 4.16563,-9.40625 9.40625,-9.40625c5.24063,0 9.40625,4.16563 9.40625,9.40625v24.32135l-32.92187,52.81043v0.13385c-0.13437,0.13437 -0.13333,0.26928 -0.2677,0.53803c0,0.13437 -0.13647,0.2677 -0.13647,0.2677c0,0.13437 -0.13385,0.2698 -0.13385,0.40418v0.40155v0.13647l-2.6875,51.3302h-9.5401c-2.28438,0 -4.03125,1.74687 -4.03125,4.03125v9.40625h-21.5c-2.28438,0 -4.03125,1.74687 -4.03125,4.03125c0,2.28438 1.74687,4.03125 4.03125,4.03125h25.53125c2.28438,0 4.03125,-1.74687 4.03125,-4.03125v-9.40625h9.40625h53.75v5.375h-41.65625c-2.28437,0 -4.03125,1.74687 -4.03125,4.03125c0,2.28438 1.74688,4.03125 4.03125,4.03125h91.375c2.28438,0 4.03125,-1.74687 4.03125,-4.03125c0,-2.28438 -1.74687,-4.03125 -4.03125,-4.03125h-41.65625v-9.40625c0,-2.28438 -1.74688,-4.03125 -4.03125,-4.03125h-9.40625v-81.43072l37.22083,-8.73437c2.15,-0.5375 3.49532,-2.68698 2.95782,-4.83698c-0.5375,-2.15 -2.68698,-3.49532 -4.83698,-2.95782l-40.3125,9.40625c-1.74687,0.40312 -3.09167,2.01615 -3.09167,3.8974v84.65625h-36.1474l2.55365,-49.8526l33.05572,-52.81043c0,-0.13437 0.13385,-0.13332 0.13385,-0.2677c0.13437,-0.13438 0.13595,-0.2698 0.27032,-0.40418c0,-0.13437 0.13385,-0.26718 0.13385,-0.40155c0,-0.13437 0.13385,-0.2698 0.13385,-0.40417v-0.40417v-0.2677v-25.53125c0,-9.675 -7.79375,-17.46875 -17.46875,-17.46875zM9.40625,38.96875c-2.28437,0 -4.03125,1.74688 -4.03125,4.03125c0,2.28438 1.74688,4.03125 4.03125,4.03125h9.40625h60.73645c2.28437,0 4.03125,-1.74687 4.03125,-4.03125c0,-2.28437 -1.74688,-4.03125 -4.03125,-4.03125h-60.73645zM113.1427,38.96875c-2.28438,0 -4.03125,1.74688 -4.03125,4.03125c0,2.28438 1.74687,4.03125 4.03125,4.03125h48.1073c2.28438,0 4.03125,-1.74687 4.03125,-4.03125c0,-2.28437 -1.74687,-4.03125 -4.03125,-4.03125zM22.98022,51.08087c-1.8592,-0.07349 -3.56356,1.19205 -4.03387,3.0733c-0.5375,2.15 0.80782,4.29948 2.95782,4.83698l37.22083,8.73438v4.97082c0,2.15 1.74687,4.03125 4.03125,4.03125c2.28437,0 4.03125,-1.74688 4.03125,-4.03125v-8.19635c0,-1.88125 -1.3448,-3.49428 -3.09167,-3.8974l-40.3125,-9.40625c-0.26875,-0.06719 -0.5375,-0.10498 -0.8031,-0.11548zM5.375,162.59375c-2.2264,0 -4.03125,1.80485 -4.03125,4.03125c0,2.2264 1.80485,4.03125 4.03125,4.03125c2.2264,0 4.03125,-1.80485 4.03125,-4.03125c0,-2.2264 -1.80485,-4.03125 -4.03125,-4.03125z"></path></g></g></svg>